<svg width="612" height="325" viewBox="0 0 612 325" fill="none" xmlns="http://www.w3.org/2000/svg">
<path d="M147.677 166.394C158.898 158.602 200.646 144.566 220.118 138.522H241.988C254.968 141.74 284.129 149.474 296.935 154.666C309.742 159.858 333.09 190.601 342.464 204.879L332.264 224.41C306.305 250.023 327.221 272.636 341.066 281.001C320.299 281.001 311.357 273.213 309.482 269.319C311.559 281.088 313.232 309.989 313.809 322.969H161.082V299.379H102.83C97.4621 240.644 133.651 176.134 147.677 166.394Z" fill="url(#paint0_linear_764_787)"/>
<ellipse cx="232.702" cy="157.054" rx="26.0047" ry="18.5311" fill="#CF0606"/>
<path d="M213.396 155.14C216.771 135.732 215.582 117.773 215.055 111.576C215.793 105.774 246.49 116.64 261.257 122.441C252.924 126.661 250.665 147.757 250.577 157.777C250.841 161.073 248.784 168.061 238.447 169.644C221.149 171.648 214.539 160.81 213.396 155.14Z" fill="url(#paint1_linear_764_787)"/>
<mask id="mask0_764_787" style="mask-type:alpha" maskUnits="userSpaceOnUse" x="213" y="109" width="49" height="61">
<path d="M213.396 155.14C216.771 135.732 215.582 117.773 215.055 111.576C215.793 105.774 246.49 116.64 261.257 122.441C252.924 126.661 250.665 147.757 250.577 157.777C250.841 161.073 248.784 168.061 238.447 169.644C221.149 171.648 214.539 160.81 213.396 155.14Z" fill="#BABABA"/>
</mask>
<g mask="url(#mask0_764_787)">
<path opacity="0.1" d="M256.147 142.577C235.359 139.333 219.946 121.056 214.838 112.323C226.704 109.876 253.383 106.449 265.178 112.323C276.973 118.198 264.072 134.94 256.147 142.577Z" fill="black"/>
</g>
<path d="M249.814 125.995C283.959 124.511 284.935 77.8162 281.154 54.6547C219.463 2.36582 194.694 43.4519 190.02 70.531C195.725 89.6376 215.67 127.48 249.814 125.995Z" fill="url(#paint2_linear_764_787)"/>
<path d="M205.741 7.98281C195.918 4.88639 175.439 3.3382 172.107 21.9168C172.107 33.9288 201.096 30.8858 205.741 7.98281Z" fill="#30235B"/>
<path d="M217.568 69.6826L231.481 81.6316L229.971 88.6004L216.995 77.2121L217.568 69.6826Z" fill="#111111"/>
<path d="M203.422 80.4278C215.299 90.4897 216.068 106.201 214.969 112.799C211.12 111.768 200.371 105.088 188.164 86.6134C168.7 46.8606 192.151 17.1286 206.309 7.23166C244.247 -14.8303 294.969 19.3966 286.103 45.5823C277.237 71.768 234.831 65.7198 219.092 55.6854C222.391 65.5824 219.367 75.3419 217.443 78.9845C210.02 61.6648 188.577 67.8504 203.422 80.4278Z" fill="#30235B"/>
<path d="M228.846 2.12259C254.109 -5.13387 269.495 7.94568 274.031 15.3925C268.936 12.6489 254.815 8.80795 239.092 15.3925C214.232 26.8147 208.801 51.1709 209.193 61.9212L192.732 60.7453V54.6983C194.243 40.1966 203.583 9.37905 228.846 2.12259Z" fill="white"/>
<ellipse cx="199.473" cy="76.6604" rx="19.3216" ry="23.6381" fill="white"/>
<ellipse cx="199.473" cy="76.6604" rx="19.3216" ry="23.6381" fill="white"/>
<ellipse cx="199.473" cy="76.6604" rx="9.22277" ry="11.2832" fill="#24C28A"/>
<path opacity="0.5" d="M283.896 73.0532C276.734 70.8396 269.021 75.5585 266.06 78.1946C260.675 83.3361 268.84 96.4097 278.281 90.3875C285.833 85.5697 285.171 76.8238 283.896 73.0532Z" fill="#E6FCFF"/>
<path fill-rule="evenodd" clip-rule="evenodd" d="M263.025 76.6427C273.384 67.0738 283.207 68.7097 286.824 70.7238C288.917 76.266 286.824 92.4615 275.272 93.8972C266.03 95.0459 262.863 87.9007 262.434 84.1846C260.678 82.7657 259.511 83.9888 259.147 84.7777C259.451 95.1055 251.148 102.092 242.238 100.472C235.109 99.1759 232.006 92.0529 231.346 88.6533H229.872V82.6102C239.154 73.5213 251.978 75.7491 257.23 77.9991C258.611 76.914 261.669 76.6427 263.025 76.6427ZM283.352 73.7015C276.191 71.488 269.647 75.2807 266.686 77.9168C261.301 83.0583 268.373 95.6543 278.255 90.3873C284.172 87.2333 284.627 77.4722 283.352 73.7015ZM242.857 80.4412C246.767 79.1685 254.741 78.3169 255.352 85.0924C256.116 93.5617 248.41 99.8096 241.676 96.4774C236.801 94.0648 234.804 89.1188 234.804 85.9948C234.804 83.4957 240.172 81.2511 242.857 80.4412Z" fill="#111111"/>
<path opacity="0.5" d="M255.378 85.0926C254.767 78.3171 246.793 79.1687 242.882 80.4414C240.198 81.2513 234.83 83.4959 234.83 85.995C234.83 89.119 236.827 94.065 241.702 96.4776C248.436 99.8098 256.142 93.5619 255.378 85.0926Z" fill="#E6FCFF"/>
<path d="M102.781 299.454C108.788 326.224 144.458 326.278 161.543 322.959L293.232 303.933C294.93 305.408 298.995 309.295 301.676 313.051C304.356 316.807 306.813 314.167 307.707 312.377C311.567 316.558 314.408 314.569 315.346 313.051C318.67 317.236 321.466 315.775 322.449 314.521C327.06 317.952 328.223 314.971 328.229 313.051C321.94 299.732 310.655 286.382 305.8 281.372L272.965 284.378L166.277 273.501C146.036 259.3 95.2725 265.993 102.781 299.454Z" fill="url(#paint3_linear_764_787)"/>
<path d="M357.936 258.952C351.987 278.162 343.787 281.519 340.43 280.796C305.1 257.154 320.271 232.928 332.273 223.77L363.557 159.359C359.028 155.818 353.981 144.737 354.499 137.749C354.913 132.159 358.726 131.972 360.58 132.577C361.098 126.785 365.282 126.969 367.309 127.785C369.069 121.471 374.168 122.825 376.497 124.292C376.807 115.596 382.837 116.786 385.814 118.469L391.038 132.577C393.172 132.874 398.123 133.559 400.849 133.931C404.257 134.396 408.595 135.015 406.426 139.818C404.691 143.66 395.892 156.808 391.709 162.901C382.93 186.914 363.885 239.742 357.936 258.952Z" fill="url(#paint4_linear_764_787)"/>
<path d="M267.883 316.057H336.774C336.774 319.874 333.68 322.969 329.863 322.969H274.794C270.977 322.969 267.883 319.874 267.883 316.057Z" fill="#B4B4B4"/>
<path d="M358.739 231.003C359.221 229.847 360.35 229.095 361.601 229.095H477.946C480.159 229.095 481.659 231.346 480.808 233.389L444.258 321.061C443.777 322.216 442.648 322.968 441.396 322.968H325.051C322.838 322.968 321.338 320.717 322.189 318.674L358.739 231.003Z" fill="url(#paint5_linear_764_787)"/>
<path d="M166.317 273.47L169.407 249.15" stroke="#30235B" stroke-width="0.619401"/>
<path d="M309.388 269.463C308.925 266.608 308.137 259.709 308.693 254.948" stroke="#30235B" stroke-width="0.619401"/>
<path d="M308.549 260.272L305.891 254.887" stroke="#30235B" stroke-width="0.619401"/>
<path d="M307.608 312.155L298.98 301.263" stroke="#30235B" stroke-width="0.619401"/>
<path d="M315.246 312.693L301.779 295.216" stroke="#30235B" stroke-width="0.619401"/>
<path d="M322.326 314.295L305.586 290.177" stroke="#30235B" stroke-width="0.619401"/>
<path d="M360.576 132.682C361.037 135.08 362.542 140.75 364.87 144.243" stroke="#30235B" stroke-width="0.619401"/>
<path d="M376.526 124.343C377.231 126.818 379.067 132.4 380.769 134.928" stroke="#30235B" stroke-width="0.619401"/>
<path d="M367.216 127.939C368.047 130.633 370.109 136.556 371.713 138.696" stroke="#30235B" stroke-width="0.619401"/>
<path d="M390.972 132.568L393.539 140.08" stroke="#30235B" stroke-width="0.619401"/>
<ellipse cx="405.722" cy="278.266" rx="7.87108" ry="11.3954" transform="rotate(19.8998 405.722 278.266)" fill="white"/>
<rect x="609.134" y="202.754" width="126.562" height="10.3672" transform="rotate(117.371 609.134 202.754)" fill="#E0E0E0"/>
<rect x="519.719" y="307.326" width="58.5158" height="15.6429" rx="3.09701" fill="#30235B"/>
<rect x="602.437" y="203.77" width="67.981" height="10.3672" transform="rotate(-139.766 602.437 203.77)" fill="#E0E0E0"/>
<rect x="551.644" y="155.344" width="20.0574" height="3.57104" transform="rotate(162.128 551.644 155.344)" fill="#E0E0E0"/>
<circle cx="604.758" cy="199.595" r="7.24237" fill="#30235B"/>
<path d="M547.115 150.111L557.261 151.995L550.557 159.84L547.115 150.111Z" fill="#30235B"/>
<path d="M515.514 146.73C517.851 140.859 524.504 137.995 530.375 140.332C536.245 142.669 539.11 149.323 536.773 155.193L530.31 171.425L509.052 162.962L515.514 146.73Z" fill="#30235B"/>
<path d="M522.255 163.292C498.662 154.028 482.965 174.78 477.423 185.77C493.804 209.125 523.811 211.525 537.41 210.349C542.189 198.523 545.847 172.556 522.255 163.292Z" fill="#30235B"/>
<path d="M45.2888 251.251C30.1079 260.543 25.331 252.069 24.8401 246.671C24.8401 238.818 24.8401 232.275 14.5343 220.66C-10.3311 193.177 -2.47885 149.336 31.8746 146.555C66.228 143.774 56.2491 165.531 44.1436 179.6C32.0621 193.64 39.6965 197.905 57.7775 208.004L57.885 208.064C81.4416 222.296 61.8111 235.056 50.1964 237.346C38.5816 239.636 48.5605 246.671 45.2888 251.251Z" fill="url(#paint6_linear_764_787)"/>
<path d="M195.572 99.1042C190.193 97.9746 179.522 90.9189 180.485 74.7088" stroke="#30235B" stroke-width="0.949425"/>
<path d="M271.358 12.1703C268.429 7.82318 261.51 1.39812 247.562 0.739198" stroke="#30235B" stroke-width="0.949425"/>
<path d="M79.7213 290.357C81.0055 275.646 67.4098 272.105 59.0937 272.106C58.0939 272.106 57.2405 272.79 56.9506 273.747C56.4768 275.311 57.6761 276.888 59.3055 277.011C66.649 277.563 76.5512 280.687 74.7246 290.357C72.952 299.741 64.8186 301.51 59.0604 301.112C57.4738 301.002 55.9867 302.184 55.9867 303.774C55.9867 304.959 56.8246 305.987 58.003 306.111C65.7714 306.926 78.4636 304.764 79.7213 290.357Z" fill="url(#paint7_linear_764_787)"/>
<path d="M58.3928 266.923V319.868C58.3928 321.58 57.0045 322.969 55.2919 322.969H13.4924C11.7798 322.969 10.3915 321.58 10.3915 319.868L10.3916 266.923C10.3916 265.211 11.7799 263.822 13.4924 263.822H55.2919C57.0045 263.822 58.3928 265.211 58.3928 266.923Z" fill="url(#paint8_linear_764_787)"/>
<path d="M332.23 223.714L341.834 204.023" stroke="#30235B" stroke-width="0.949425"/>
<path d="M251.982 282.131C248.79 292.905 250.652 305.076 251.982 309.814L260.859 308.556C259.008 294.437 260.088 285.71 260.859 283.111L251.982 282.131Z" fill="#30235B"/>
<rect x="248.466" y="277.516" width="16.7876" height="4.35238" rx="2.17349" transform="rotate(6.01694 248.466 277.516)" fill="url(#paint9_linear_764_787)"/>
<rect opacity="0.5" x="437.54" y="8.62105" width="111.162" height="80.5692" rx="3.7977" stroke="#F7F7F7" stroke-width="1.89885"/>
<rect x="455.124" y="43.7242" width="19.012" height="26.5982" rx="2.58027" fill="#FF7979"/>
<rect x="483.615" y="27.4889" width="19.012" height="42.8335" rx="2.58027" fill="#9EFFAE"/>
<rect x="512.106" y="34.3976" width="19.012" height="35.9249" rx="2.58027" fill="#FFDEAD"/>
<rect opacity="0.5" x="443.312" y="21.0803" width="96.617" height="58.4862" fill="white"/>
<defs>
<linearGradient id="paint0_linear_764_787" x1="234.793" y1="108.196" x2="222.378" y2="356.841" gradientUnits="userSpaceOnUse">
<stop stop-color="#FF9F81"/>
<stop offset="1" stop-color="#F53838"/>
</linearGradient>
<linearGradient id="paint1_linear_764_787" x1="234.658" y1="40.8925" x2="232.439" y2="151.33" gradientUnits="userSpaceOnUse">
<stop stop-color="#FFEFE0"/>
<stop offset="1" stop-color="#FFBE99"/>
</linearGradient>
<linearGradient id="paint2_linear_764_787" x1="236.341" y1="29.4626" x2="236.341" y2="126.038" gradientUnits="userSpaceOnUse">
<stop stop-color="#FFEFE0"/>
<stop offset="1" stop-color="#FFBE99"/>
</linearGradient>
<linearGradient id="paint3_linear_764_787" x1="215.129" y1="230.419" x2="215.129" y2="314.389" gradientUnits="userSpaceOnUse">
<stop offset="0.0677966" stop-color="#FFEFE0"/>
<stop offset="1" stop-color="#FFBE99"/>
</linearGradient>
<linearGradient id="paint4_linear_764_787" x1="332.16" y1="107.177" x2="413.646" y2="202.543" gradientUnits="userSpaceOnUse">
<stop stop-color="#FFEFE0"/>
<stop offset="1" stop-color="#FFBE99"/>
</linearGradient>
<linearGradient id="paint5_linear_764_787" x1="434.991" y1="158.643" x2="389.288" y2="348.223" gradientUnits="userSpaceOnUse">
<stop offset="0.0171777" stop-color="white"/>
<stop offset="1" stop-color="#D7D7D7"/>
</linearGradient>
<linearGradient id="paint6_linear_764_787" x1="-23.4792" y1="263.213" x2="68.9483" y2="146.312" gradientUnits="userSpaceOnUse">
<stop stop-color="#ECECEC"/>
<stop offset="1" stop-color="#F5F5F5" stop-opacity="0"/>
</linearGradient>
<linearGradient id="paint7_linear_764_787" x1="87.8623" y1="279.267" x2="55.9867" y2="279.966" gradientUnits="userSpaceOnUse">
<stop stop-color="white"/>
<stop offset="1" stop-color="#CCCCCC"/>
</linearGradient>
<linearGradient id="paint8_linear_764_787" x1="34.3921" y1="245.967" x2="34.3922" y2="341.31" gradientUnits="userSpaceOnUse">
<stop stop-color="white"/>
<stop offset="1" stop-color="#CCCCCC"/>
</linearGradient>
<linearGradient id="paint9_linear_764_787" x1="256.541" y1="276.665" x2="256.429" y2="281.94" gradientUnits="userSpaceOnUse">
<stop stop-color="#7F67CE"/>
<stop offset="1" stop-color="#30235B"/>
</linearGradient>
</defs>
</svg>
